<?xml version="1.0" standalone="no"?>
<!DOCTYPE svg PUBLIC "-//W3C//DTD SVG 20010904//EN"
 "http://www.w3.org/TR/2001/REC-SVG-20010904/DTD/svg10.dtd">
<svg version="1.0" xmlns="http://www.w3.org/2000/svg"
 width="3045.000000pt" height="3045.000000pt" viewBox="0 0 3045.000000 3045.000000"
 preserveAspectRatio="xMidYMid meet">
<metadata>
Created by potrace 1.14, written by Peter Selinger 2001-2017
</metadata>
<g transform="translate(0.000000,3045.000000) scale(0.100000,-0.100000)"
fill="#000000" stroke="none">
<path d="M14855 29950 c-355 -11 -829 -41 -1085 -70 -344 -39 -504 -60 -775
-100 -361 -54 -866 -157 -1300 -266 -1740 -437 -3412 -1206 -4881 -2245 -2281
-1613 -4056 -3850 -5109 -6433 -320 -786 -579 -1624 -755 -2441 -162 -755
-256 -1442 -307 -2245 -24 -390 -24 -1307 0 -1685 35 -536 78 -944 142 -1360
36 -229 56 -354 65 -395 5 -25 26 -130 46 -235 141 -740 385 -1600 657 -2315
13 -36 38 -101 55 -145 176 -467 490 -1147 752 -1630 367 -677 715 -1222 1164
-1825 1240 -1665 2848 -3069 4661 -4070 248 -137 261 -143 521 -274 661 -330
1253 -576 1944 -806 658 -220 1439 -416 2090 -524 85 -15 180 -31 210 -36 266
-49 920 -122 1335 -149 638 -43 1359 -41 2018 4 1373 95 2763 394 4047 872
1753 652 3305 1593 4720 2861 219 196 839 814 1031 1027 1173 1301 2065 2714
2721 4310 381 927 705 2052 863 2995 100 602 147 990 192 1610 14 189 18 370
18 930 0 774 -7 935 -71 1550 -237 2295 -1037 4532 -2320 6488 -468 712 -1061
1461 -1608 2030 -68 70 -138 145 -157 166 -58 67 -526 513 -709 677 -866 771
-1750 1396 -2755 1947 -1212 664 -2550 1162 -3920 1458 -283 61 -622 124 -820
154 -316 46 -461 65 -780 100 -281 32 -703 58 -1125 70 -342 10 -401 10 -775
0z m323 -1126 c201 -58 337 -170 423 -348 57 -117 72 -200 67 -364 -4 -118 -9
-148 -32 -212 -113 -306 -394 -483 -741 -467 -131 6 -202 24 -310 76 -143 70
-236 162 -309 306 -47 94 -65 169 -73 295 -8 141 12 245 72 365 70 142 179
248 321 311 173 76 399 91 582 38z m1855 -80 c102 -22 243 -93 311 -155 31
-28 55 -55 54 -59 -4 -9 -209 -180 -225 -187 -6 -2 -27 13 -47 34 -19 22 -59
52 -88 69 -46 25 -63 29 -133 29 -98 0 -137 -22 -157 -87 -10 -35 -10 -45 8
-77 16 -31 42 -48 193 -126 197 -101 260 -151 308 -242 38 -71 48 -137 33
-227 -15 -95 -53 -171 -119 -236 -91 -91 -200 -130 -361 -130 -202 1 -378 69
-512 199 -27 25 -48 51 -48 57 0 11 220 194 233 194 3 0 29 -24 56 -53 72 -76
146 -111 243 -116 65 -3 83 0 112 18 19 12 37 29 41 39 46 114 10 160 -217
271 -171 84 -234 134 -278 225 -40 80 -48 157 -26 249 21 90 48 141 106 197
113 110 321 156 513 114z m-3639 -306 c27 -139 64 -332 83 -428 41 -210 45
-321 14 -420 -50 -160 -179 -282 -366 -346 -95 -32 -275 -44 -364 -25 -173 37
-314 166 -377 344 -8 22 -30 121 -49 221 -82 434 -126 662 -128 675 -2 17 13
22 188 55 90 17 132 22 136 14 4 -6 10 -29 13 -52 4 -22 27 -147 52 -276 24
-129 56 -293 70 -365 28 -148 36 -173 76 -232 33 -49 113 -93 171 -93 121 0
222 70 252 175 17 58 17 63 -5 185 -31 174 -44 241 -80 425 -49 253 -62 327
-55 334 8 7 258 58 295 60 26 1 26 1 74 -251z m5491 -67 c271 -72 466 -251
541 -496 29 -96 24 -275 -10 -388 -76 -254 -231 -420 -459 -492 -341 -108
-765 61 -915 366 -57 116 -75 205 -69 344 6 134 23 202 84 325 86 177 241 302
435 351 97 25 278 20 393 -10z m-7740 -311 c113 -35 183 -78 270 -165 132
-131 197 -281 199 -455 1 -98 -12 -165 -46 -232 -10 -21 -14 -38 -8 -38 5 0
62 21 125 46 64 26 118 45 120 43 8 -9 85 -223 85 -238 0 -12 -87 -47 -343
-141 -457 -166 -519 -187 -607 -201 -87 -13 -234 -6 -301 15 -178 56 -326 196
-412 393 -33 75 -66 219 -67 289 0 85 29 203 72 294 34 70 56 101 132 176 58
58 116 105 160 129 82 46 212 92 293 105 90 14 248 4 328 -20z m9327 -269
c199 -91 278 -131 278 -138 0 -4 21 -188 45 -408 25 -220 50 -440 56 -490 5
-49 11 -94 12 -98 1 -4 24 41 51 100 62 137 273 597 293 641 20 41 20 41 186
-37 107 -51 126 -63 120 -78 -4 -10 -24 -53 -45 -96 -21 -43 -38 -79 -38 -81
0 -2 -26 -59 -59 -127 -52 -110 -277 -590 -382 -816 -21 -46 -43 -83 -48 -83
-7 0 -199 88 -306 140 l-30 15 -17 150 c-10 83 -22 191 -27 240 -41 363 -70
607 -73 611 -3 2 -31 -53 -63 -123 -197 -432 -296 -648 -299 -650 -8 -8 -281
128 -284 141 -2 7 26 75 63 151 36 76 65 139 65 140 0 1 26 58 58 126 33 68
130 276 217 462 87 185 159 337 161 337 2 0 32 -13 66 -29z m-11331 -615 c201
-43 366 -180 469 -391 60 -123 80 -201 80 -325 0 -282 -164 -519 -453 -656
-112 -53 -185 -68 -322 -68 -129 0 -195 14 -290 61 -149 75 -256 186 -335 348
-64 131 -84 219 -78 349 8 159 62 289 171 412 117 131 321 246 485 274 76 13
202 11 273 -4z m6649 -476 c1653 -67 3305 -512 4793 -1292 1543 -809 2891
-1972 3919 -3383 501 -687 923 -1431 1260 -2220 369 -866 647 -1859 773 -2765
14 -102 30 -216 35 -255 10 -71 40 -397 60 -645 17 -211 24 -924 11 -1190 -17
-356 -40 -649 -71 -880 -34 -255 -44 -330 -65 -460 -318 -1944 -1144 -3768
-2399 -5300 -1420 -1732 -3330 -3014 -5466 -3670 -573 -176 -1203 -317 -1740
-389 -85 -12 -186 -25 -225 -31 -88 -12 -432 -45 -630 -60 -405 -30 -1176 -28
-1620 5 -321 23 -473 40 -795 85 -1681 238 -3303 858 -4720 1803 -1161 775
-2182 1771 -2992 2917 -1098 1556 -1787 3390 -1983 5280 -44 431 -50 560 -50
1175 0 740 13 938 105 1610 82 591 237 1258 437 1869 127 390 299 831 444
1144 22 46 39 86 39 88 0 10 251 507 315 624 431 790 906 1465 1514 2150 191
216 651 678 865 869 709 634 1456 1159 2271 1594 1500 800 3175 1257 4865
1327 457 19 570 19 1050 0z m-8335 -661 c73 -34 178 -142 216 -224 93 -198 15
-392 -241 -598 -41 -33 -79 -64 -84 -68 -5 -4 62 -96 149 -204 86 -109 153
-201 148 -205 -21 -21 -249 -200 -253 -200 -6 1 -833 1038 -838 1051 -4 9 356
298 460 370 61 42 156 85 223 103 47 12 171 -2 220 -25z m17404 -1222 l130
-144 -38 -119 c-84 -257 -130 -408 -126 -412 2 -2 59 8 127 23 68 15 141 31
163 36 22 4 89 19 148 32 l108 24 126 -137 c69 -76 125 -142 125 -146 0 -5
-19 -12 -43 -16 -66 -10 -242 -37 -344 -53 -49 -8 -182 -28 -295 -45 -113 -17
-214 -35 -225 -39 -11 -5 -112 -93 -225 -196 l-205 -188 -73 79 c-40 43 -90
100 -112 125 l-39 46 212 194 c159 146 213 202 218 224 3 17 34 138 68 270 34
132 78 301 97 375 19 74 40 152 45 173 5 20 14 37 19 37 5 0 67 -65 139 -143z
m1209 -1605 c224 -83 409 -284 494 -538 20 -60 23 -88 22 -214 0 -125 -3 -153
-22 -205 -55 -146 -153 -268 -291 -359 -309 -205 -658 -166 -916 103 -270 282
-301 700 -70 970 121 141 265 226 470 275 11 3 67 3 125 2 87 -3 119 -9 188
-34z m-21713 -985 c237 -132 492 -274 567 -316 76 -42 138 -80 138 -84 0 -11
-170 -316 -180 -322 -3 -2 -125 -9 -271 -15 -145 -7 -373 -17 -506 -23 l-242
-12 152 -83 c415 -225 591 -323 601 -332 5 -5 -13 -48 -44 -102 -29 -51 -64
-112 -77 -135 -13 -24 -27 -43 -31 -43 -4 0 -111 58 -237 128 -127 70 -387
215 -578 322 -192 106 -351 199 -354 206 -2 7 6 29 19 51 13 21 53 91 88 155
l64 117 50 5 c60 6 466 24 749 33 109 3 200 9 202 13 3 4 -158 96 -358 205
-199 108 -366 201 -371 206 -5 4 24 67 69 148 73 132 79 140 99 129 11 -6 215
-119 451 -251z m22998 -970 c162 -352 160 -347 161 -497 1 -124 1 -126 -33
-188 -41 -75 -92 -121 -181 -165 -61 -30 -72 -32 -170 -32 -94 0 -110 3 -155
27 -27 14 -68 42 -90 61 l-40 35 -182 -274 c-101 -151 -187 -274 -191 -274 -4
0 -42 77 -85 170 -77 168 -78 171 -62 197 9 14 89 122 176 241 87 118 159 221
159 228 0 7 -8 29 -17 49 -20 41 -16 41 -142 -18 -340 -159 -356 -165 -366
-148 -18 30 -125 264 -125 273 0 5 48 32 108 59 59 28 145 68 192 90 672 314
898 417 911 418 11 1 50 -74 132 -252z m-23888 -827 c99 -25 243 -95 314 -153
160 -133 243 -310 245 -522 1 -222 -79 -426 -229 -579 -194 -198 -457 -255
-739 -160 -111 38 -194 90 -282 178 -66 65 -89 97 -121 166 -23 47 -45 105
-51 130 -45 193 -8 417 99 607 57 100 180 225 269 273 151 80 327 101 495 60z
m24535 -752 c18 -57 38 -122 46 -146 8 -23 14 -48 14 -55 0 -8 -97 -41 -250
-87 -137 -41 -250 -77 -250 -81 0 -3 35 -22 78 -41 447 -204 548 -251 557
-259 12 -11 124 -381 118 -391 -2 -4 -170 76 -373 177 -204 102 -374 185 -379
185 -5 0 -123 -175 -262 -390 -140 -214 -258 -388 -263 -387 -8 3 -32 77 -97
302 -12 39 -23 77 -25 86 -2 8 93 156 215 335 121 175 218 320 217 322 -3 2
-166 -45 -500 -147 -39 -12 -73 -18 -77 -14 -9 9 -79 241 -86 283 -4 25 -1 26
634 217 351 105 641 192 645 192 4 1 21 -45 38 -101z m-25601 -1093 c68 -14
126 -27 130 -30 5 -2 -7 -80 -25 -172 -19 -91 -34 -174 -34 -183 0 -14 26 -22
133 -43 337 -67 877 -178 892 -183 9 -4 14 -12 12 -18 -3 -6 -17 -76 -33 -155
-16 -79 -34 -146 -41 -148 -6 -2 -227 39 -490 93 -263 54 -494 98 -513 98
l-35 1 -35 -174 c-20 -97 -41 -176 -47 -178 -11 -4 -262 43 -270 50 -3 4 -1
15 116 592 50 248 93 456 96 463 6 16 2 16 144 -13z m26054 -612 c4 -26 20
-133 37 -238 119 -751 122 -777 113 -786 -5 -4 -60 -15 -123 -24 -63 -9 -122
-18 -132 -21 -19 -6 -19 -5 -53 210 -14 88 -26 160 -27 161 -2 1 -82 -11 -178
-26 -233 -38 -465 -74 -630 -99 -74 -12 -157 -25 -184 -31 -27 -5 -53 -6 -57
-2 -9 10 -43 234 -44 288 0 39 0 39 45 46 381 60 508 80 730 115 172 26 261
42 265 45 3 4 -14 111 -45 298 -6 35 -8 66 -5 70 8 7 267 49 276 45 3 -2 9
-25 12 -51z m-25931 -1151 c120 -54 192 -154 225 -311 12 -58 14 -110 10 -223
l-5 -147 41 -5 c23 -3 125 -10 227 -16 250 -16 230 -9 230 -78 -1 -75 -17
-262 -23 -268 -4 -5 -109 2 -682 41 -121 8 -290 19 -375 25 -85 5 -186 12
-224 16 l-68 6 6 62 c3 33 10 138 16 231 17 290 36 399 87 498 48 95 142 173
237 198 17 5 76 7 131 5 86 -3 110 -8 167 -34z m25741 -567 c314 -109 491
-417 456 -795 -28 -294 -201 -519 -465 -606 -83 -27 -100 -29 -239 -29 -171 1
-221 12 -346 77 -245 126 -382 389 -366 703 8 153 41 258 118 381 95 149 273
263 469 298 14 3 86 3 160 1 115 -3 147 -7 213 -30z m-25030 -1355 c9 -85 14
-156 12 -158 -3 -4 -112 -14 -380 -37 -99 -9 -254 -22 -345 -30 -91 -8 -174
-15 -185 -15 -20 -1 137 -45 480 -135 99 -26 243 -64 320 -85 l140 -37 6 -33
c4 -18 10 -72 14 -119 l6 -86 -333 -155 c-470 -218 -555 -259 -535 -260 9 0
106 9 215 20 108 12 238 25 287 30 50 5 157 16 239 24 82 9 152 14 156 11 4
-2 10 -42 13 -87 4 -46 10 -113 13 -150 5 -53 4 -69 -7 -72 -8 -3 -142 -16
-299 -30 -157 -15 -325 -30 -375 -36 -276 -30 -649 -60 -655 -53 -5 4 -16 91
-25 193 -9 102 -19 203 -22 226 l-5 40 73 34 c41 18 121 56 179 83 58 27 197
92 310 144 113 52 219 102 235 111 l30 16 -30 7 c-16 3 -118 27 -225 53 -107
25 -281 66 -387 91 -106 25 -203 49 -216 54 -22 9 -24 17 -41 193 -9 100 -20
206 -23 234 l-5 51 63 7 c35 4 132 13 214 21 656 61 701 66 985 94 41 4 78 5
81 2 4 -3 14 -76 22 -161z m25422 -852 c-3 -13 -14 -77 -26 -143 -11 -66 -23
-134 -26 -152 -5 -30 -8 -32 -57 -37 -56 -5 -307 -21 -606 -37 -107 -5 -206
-12 -219 -15 -19 -4 58 -44 320 -165 189 -88 374 -174 411 -191 56 -26 67 -35
63 -52 -2 -12 -13 -79 -25 -151 -30 -182 -22 -171 -122 -179 -45 -3 -155 -13
-243 -21 -88 -8 -245 -22 -350 -31 -104 -9 -195 -19 -202 -23 -6 -3 48 -32
120 -63 645 -279 682 -297 681 -320 -1 -38 -47 -302 -54 -311 -8 -9 -59 13
-385 173 -137 67 -376 183 -530 257 -154 74 -296 143 -316 153 l-36 19 28 157
c16 86 30 159 33 161 6 7 117 20 524 65 215 23 392 45 392 48 0 3 -187 97
-415 209 -402 198 -414 205 -409 230 3 14 15 86 28 159 13 73 25 135 28 137 3
3 72 12 154 20 430 44 979 101 1099 115 39 4 87 8 108 9 34 1 37 -1 32 -21z
m-25172 -1125 c9 -38 30 -117 46 -176 l30 -108 -114 -85 -114 -85 14 -47 c8
-26 32 -117 54 -202 22 -85 46 -175 54 -200 l13 -45 84 -8 c47 -4 110 -11 140
-15 l55 -7 47 -170 c26 -93 48 -172 48 -174 0 -4 -91 5 -225 24 -157 22 -307
42 -475 65 -85 11 -184 25 -220 30 -36 5 -119 17 -185 25 -257 34 -340 47
-347 53 -4 4 -25 74 -48 156 -39 141 -40 149 -23 162 10 7 268 206 573 443
305 236 560 430 566 430 6 1 18 -29 27 -66z m23442 -1125 c80 -30 422 -156
889 -328 138 -50 253 -93 256 -95 10 -6 -117 -349 -132 -357 -7 -4 -231 -51
-498 -103 -267 -53 -486 -98 -488 -100 -2 -2 14 -9 35 -15 36 -12 97 -33 381
-136 312 -112 378 -137 385 -144 9 -8 -93 -300 -105 -300 -11 0 -1101 400
-1203 442 -40 16 -59 29 -57 39 2 8 31 87 63 175 50 134 64 163 82 166 670
134 953 192 959 197 5 4 -97 44 -225 90 -472 170 -562 203 -566 207 -2 2 15
57 39 121 68 188 68 186 87 178 10 -4 54 -20 98 -37z m-22828 -861 c36 -82 63
-150 61 -151 -1 -2 -97 -45 -213 -96 -325 -143 -296 -127 -286 -153 5 -12 51
-117 103 -233 84 -190 95 -210 113 -204 11 4 123 53 248 109 125 55 233 101
240 101 7 0 30 -42 51 -93 22 -50 51 -116 64 -145 15 -32 21 -57 16 -62 -5 -5
-92 -46 -194 -90 -267 -118 -468 -206 -690 -305 -280 -124 -340 -149 -345
-143 -3 2 -34 71 -70 152 l-65 147 48 21 c217 95 408 180 411 184 2 2 -28 77
-67 166 -140 323 -133 309 -170 288 -16 -9 -423 -190 -427 -190 -2 0 -20 39
-40 88 -21 48 -51 116 -67 151 -16 35 -27 65 -25 67 4 4 167 77 472 212 88 38
279 123 425 187 146 64 279 123 295 130 17 7 34 12 38 11 5 -1 38 -68 74 -149z
m20567 -3239 c3 -13 7 -59 10 -103 3 -44 9 -112 12 -151 l7 -71 -60 -5 c-111
-10 -221 -86 -273 -187 -37 -73 -16 -152 49 -186 61 -31 74 -27 371 133 111
59 189 82 281 83 120 1 193 -32 290 -131 111 -112 154 -242 132 -393 -20 -143
-88 -264 -218 -392 -130 -128 -310 -220 -445 -227 l-55 -3 -7 100 c-3 55 -9
132 -12 170 l-6 71 74 11 c42 6 103 24 140 41 106 50 196 156 196 232 0 51
-35 107 -82 131 -38 19 -47 20 -93 10 -29 -7 -101 -39 -161 -73 -240 -134
-291 -152 -416 -146 -105 4 -170 33 -256 112 -182 169 -189 430 -18 669 106
149 268 265 429 307 94 25 106 25 111 -2z m-18128 -588 l147 -144 -53 -241
c-29 -132 -64 -287 -77 -345 -13 -58 -28 -125 -33 -150 -5 -25 -25 -117 -44
-204 -20 -88 -34 -161 -32 -163 2 -2 151 150 330 339 180 189 330 344 334 345
4 1 66 -54 137 -122 l130 -124 -135 -138 c-75 -76 -266 -273 -425 -438 -469
-486 -489 -506 -501 -503 -6 2 -75 63 -153 137 -96 92 -141 141 -141 156 0 12
54 264 119 560 66 297 119 541 117 542 -1 2 -152 -155 -335 -347 l-333 -350
-67 59 c-36 33 -95 89 -130 125 l-64 65 33 38 c18 21 162 171 320 333 157 162
378 391 490 507 113 117 208 212 212 210 3 -1 73 -67 154 -147z m17093 -422
c11 -24 85 -200 166 -393 81 -192 210 -498 287 -679 77 -181 136 -332 131
-336 -24 -21 -260 -207 -271 -214 -8 -5 -67 30 -160 95 -81 57 -272 190 -425
297 -153 107 -280 192 -282 191 -2 -2 52 -137 119 -299 101 -243 253 -609 272
-656 3 -6 -60 -63 -139 -127 l-145 -116 -388 276 c-734 519 -894 634 -894 638
0 2 68 58 150 125 99 79 156 120 166 116 9 -3 182 -135 385 -294 204 -158 381
-295 394 -305 22 -17 21 -10 -19 80 -131 297 -308 697 -335 756 -17 38 -31 75
-31 82 0 12 227 204 279 237 16 10 71 -27 415 -278 218 -159 405 -295 416
-303 14 -9 1 27 -46 125 -37 77 -81 171 -99 209 -18 39 -70 149 -115 245 -119
252 -150 319 -153 329 -2 10 279 241 295 241 5 0 17 -19 27 -42z m-15383
-1049 c256 -184 402 -295 397 -302 -36 -58 -176 -241 -184 -240 -5 2 -122 84
-260 184 -138 99 -256 182 -263 185 -9 3 -125 -144 -159 -202 -4 -8 88 -80
243 -190 137 -99 249 -183 250 -187 0 -11 -159 -231 -171 -235 -5 -2 -119 76
-254 173 -135 97 -250 175 -254 173 -16 -5 -172 -229 -166 -237 2 -5 100 -77
217 -161 318 -229 338 -243 338 -249 -1 -16 -178 -246 -189 -246 -16 0 -850
597 -851 609 0 5 89 133 198 285 626 871 677 941 690 936 7 -3 195 -136 418
-296z m13406 -571 c57 -100 73 -136 64 -145 -6 -6 -132 -79 -281 -163 -148
-84 -272 -154 -274 -156 -3 -3 2 -17 10 -32 91 -161 115 -202 122 -202 4 0
126 67 272 149 l265 149 18 -26 c29 -43 134 -233 130 -237 -1 -1 -120 -69
-263 -149 -143 -81 -263 -150 -267 -154 -6 -6 116 -239 135 -258 3 -3 138 69
300 160 162 91 299 166 305 166 6 0 30 -33 53 -72 115 -199 111 -191 97 -204
-7 -7 -49 -32 -93 -56 -44 -25 -246 -138 -448 -252 -203 -114 -370 -206 -371
-204 -4 6 -88 154 -231 408 -76 135 -175 310 -220 390 -216 382 -285 507 -285
516 0 8 864 503 880 504 3 0 40 -60 82 -132z m-12539 -34 c94 -47 173 -87 175
-89 1 -1 -11 -62 -28 -136 -50 -223 -100 -441 -115 -504 -50 -210 -77 -336
-73 -340 2 -2 152 164 333 371 180 206 332 377 336 380 8 5 349 -162 349 -171
0 -3 -20 -106 -44 -228 -25 -122 -67 -339 -95 -482 -28 -143 -53 -269 -56
-279 -2 -10 0 -15 4 -10 5 5 149 178 320 384 172 206 318 379 324 383 13 9
339 -145 345 -163 2 -5 -63 -83 -145 -172 -146 -160 -377 -415 -722 -796 -96
-105 -180 -192 -188 -192 -10 0 -308 143 -320 154 -3 3 13 100 56 341 16 94
41 238 56 320 14 83 35 199 45 259 11 60 19 111 17 112 -2 2 -40 -38 -86 -89
-46 -51 -109 -119 -140 -152 -31 -33 -152 -165 -270 -292 -117 -128 -215 -233
-217 -233 -2 0 -76 36 -164 80 -115 57 -160 85 -160 98 0 15 63 365 126 697
13 72 35 193 49 270 110 601 103 565 110 565 3 0 83 -39 178 -86z m11087 -656
c12 -35 53 -142 90 -238 38 -96 116 -301 175 -455 59 -154 138 -360 176 -458
38 -97 69 -183 69 -190 0 -12 -68 -41 -331 -139 l-57 -21 -418 320 c-231 175
-436 332 -456 347 l-38 28 24 -63 c14 -35 66 -167 116 -294 186 -470 211 -537
208 -547 -4 -11 -294 -127 -318 -128 -17 0 -13 -9 -300 740 -110 289 -212 554
-226 589 -14 35 -23 69 -21 76 3 6 91 44 196 84 l191 73 277 -213 c153 -117
352 -270 443 -339 91 -70 170 -130 177 -133 11 -7 -8 44 -223 588 -63 160
-114 295 -114 302 0 6 30 23 68 37 37 14 108 41 157 60 50 19 95 35 101 35 6
1 21 -27 34 -61z m-8634 -408 c148 -44 294 -90 324 -101 242 -91 380 -250 380
-439 0 -61 -33 -187 -65 -250 -114 -225 -365 -286 -729 -176 -44 13 -89 26
-100 28 -16 3 -25 -17 -61 -142 -101 -341 -113 -381 -119 -387 -6 -6 -325 84
-347 98 -7 4 0 43 21 110 54 179 87 292 109 364 41 141 282 950 286 963 2 6
10 12 18 12 7 0 135 -36 283 -80z m6075 -391 c4 -24 15 -93 24 -152 10 -60 15
-110 12 -113 -2 -3 -63 -14 -133 -24 -306 -46 -286 -42 -280 -64 2 -12 19
-115 35 -231 17 -115 55 -370 85 -565 30 -195 51 -358 47 -362 -5 -6 -73 -17
-290 -49 -47 -7 -67 -6 -72 2 -3 6 -12 48 -18 93 -6 44 -25 171 -41 281 -17
110 -37 245 -45 300 -60 405 -73 487 -77 491 -5 5 -41 0 -272 -36 -76 -12
-141 -19 -144 -16 -9 9 -50 301 -43 308 3 4 204 37 446 73 242 36 485 73 540
82 55 8 123 18 150 23 28 4 54 6 60 5 5 -1 13 -21 16 -46z m-3967 -39 c276
-60 497 -241 585 -480 26 -71 51 -201 51 -268 0 -80 -28 -234 -57 -315 -55
-155 -163 -295 -292 -382 -293 -194 -722 -173 -1016 50 -192 146 -306 398
-292 645 15 244 81 403 233 556 69 71 95 89 185 132 99 48 196 77 284 86 72 7
228 -5 319 -24z m1931 -141 c293 -36 456 -196 455 -449 -1 -173 -82 -305 -232
-379 -42 -21 -65 -38 -61 -45 4 -6 94 -148 200 -316 l194 -305 -212 -8 c-172
-7 -214 -6 -225 5 -7 7 -84 139 -172 293 l-159 280 -60 3 -59 3 0 -298 1 -298
-176 -3 -177 -2 -6 142 c-12 263 -26 1362 -18 1370 4 4 115 9 247 11 132 1
269 3 305 5 36 1 106 -3 155 -9z"/>
<path d="M14819 28535 c-105 -34 -203 -130 -235 -230 -77 -243 44 -504 257
-555 78 -19 192 -8 261 25 232 110 288 466 104 663 -69 73 -140 104 -251 108
-61 3 -105 -1 -136 -11z"/>
<path d="M18624 28081 c-192 -50 -323 -267 -293 -487 23 -166 136 -280 315
-315 146 -29 313 61 388 208 144 285 -8 585 -304 599 -41 2 -89 0 -106 -5z"/>
<path d="M10830 27769 c-164 -33 -290 -167 -306 -325 -18 -168 86 -364 231
-434 43 -22 64 -25 150 -25 87 0 107 4 157 27 79 37 142 98 181 177 29 59 32
74 32 156 0 109 -21 180 -79 267 -83 123 -228 186 -366 157z"/>
<path d="M8860 26857 c-214 -49 -344 -259 -285 -463 37 -131 133 -251 242
-305 41 -21 63 -24 153 -24 96 0 110 2 159 28 75 40 143 106 176 174 37 75 45
190 21 274 -18 62 -72 158 -114 202 -91 97 -229 142 -352 114z"/>
<path d="M14810 24839 c-309 -12 -880 -68 -1030 -99 -25 -6 -78 -14 -118 -20
-83 -11 -225 -35 -292 -49 -267 -55 -312 -65 -490 -108 -146 -35 -159 -38
-260 -68 -107 -30 -235 -67 -265 -75 -16 -4 -66 -20 -110 -34 -44 -14 -107
-35 -140 -46 -33 -10 -105 -35 -160 -55 -55 -20 -111 -40 -125 -44 -85 -29
-494 -195 -615 -251 -33 -15 -105 -48 -160 -73 -181 -83 -474 -235 -670 -347
-55 -32 -116 -67 -135 -78 -78 -44 -306 -185 -321 -198 -8 -8 -18 -14 -22 -14
-15 0 -352 -234 -547 -379 -107 -80 -409 -317 -420 -331 -3 -3 -32 -28 -65
-55 -33 -28 -78 -66 -100 -86 -22 -20 -87 -78 -145 -130 -230 -205 -620 -610
-830 -859 -30 -36 -61 -72 -69 -80 -8 -8 -48 -58 -90 -110 -41 -52 -78 -97
-81 -100 -9 -7 -204 -269 -263 -352 l-48 -68 8026 0 8027 0 -48 68 c-119 168
-378 502 -449 578 -5 7 -30 36 -55 65 -103 122 -384 424 -525 564 -217 216
-441 419 -646 586 -68 56 -136 111 -150 123 -81 71 -466 351 -654 477 -178
118 -615 389 -628 389 -2 0 -53 27 -113 61 -117 66 -544 280 -634 318 -30 13
-80 35 -110 48 -160 73 -334 143 -530 216 -226 83 -483 169 -680 227 -175 50
-198 57 -385 103 -179 45 -389 93 -475 107 -25 5 -112 20 -195 34 -258 45
-317 55 -440 70 -582 74 -1179 100 -1765 75z m-946 -2219 c97 -46 98 -49 31
-125 -57 -66 -69 -73 -80 -55 -13 21 -86 50 -127 50 -59 0 -88 -22 -88 -65 0
-40 3 -42 127 -87 146 -52 195 -96 215 -191 20 -94 -34 -212 -115 -254 -48
-24 -126 -43 -182 -43 -92 0 -219 46 -265 95 l-24 25 59 60 c33 33 63 60 67
60 4 0 28 -14 53 -32 35 -25 58 -33 104 -36 54 -4 62 -2 85 21 52 52 20 98
-95 136 -173 57 -230 115 -231 235 -1 90 46 167 125 208 94 48 239 47 341 -2z
m2333 25 c70 -21 127 -66 163 -127 26 -47 30 -62 30 -135 0 -106 -13 -134
-152 -345 l-110 -168 -115 0 c-92 0 -114 3 -110 13 3 8 42 64 86 125 45 61 81
113 81 114 0 2 -21 4 -46 5 -136 6 -234 112 -234 252 0 77 9 108 46 163 68 99
224 144 361 103z m1425 -22 c135 -76 154 -257 35 -332 l-31 -20 24 -9 c32 -13
76 -59 89 -95 15 -39 14 -121 -3 -161 -37 -89 -129 -146 -251 -154 -154 -10
-278 58 -325 176 -7 18 -11 34 -9 36 2 1 42 12 89 25 81 21 86 21 95 4 6 -9
22 -30 37 -45 22 -23 35 -28 76 -28 83 0 130 57 98 119 -18 33 -56 49 -138 58
l-58 6 0 67 0 67 71 6 c75 6 96 17 110 55 20 51 -22 102 -84 102 -29 0 -75
-34 -87 -65 l-9 -23 -77 19 c-113 27 -107 22 -89 66 29 69 107 132 190 154 17
5 67 7 112 5 69 -3 91 -9 135 -33z m-4324 -65 l-3 -83 -162 -3 -163 -2 0 -60
0 -59 153 -3 152 -3 3 -82 3 -83 -156 0 -155 0 0 -70 0 -70 175 0 176 0 -3
-82 -3 -83 -270 0 -270 0 -3 383 -2 382 265 0 266 0 -3 -82z m1292 -3 l0 -85
-105 0 -105 0 -2 -297 -3 -298 -97 -3 -98 -3 0 300 0 300 -107 3 -108 3 -3 69
c-2 38 -1 75 2 83 4 10 64 13 316 13 l310 0 0 -85z m955 -300 l0 -380 -97 -3
-98 -3 -2 271 -3 270 -57 -45 c-32 -25 -62 -45 -67 -45 -11 0 -93 108 -95 126
0 7 53 53 119 103 l120 90 90 -2 90 -2 0 -380z m1425 376 c0 -4 -15 -28 -33
-52 -41 -53 -137 -188 -137 -192 0 -1 22 -3 50 -4 133 -6 230 -113 230 -256 0
-163 -124 -277 -301 -277 -121 0 -222 55 -273 149 -24 46 -29 65 -29 131 0
100 20 143 160 352 l106 158 113 0 c63 0 114 -4 114 -9z m-2228 -580 c29 -26
33 -35 33 -80 0 -42 -5 -55 -28 -78 -23 -24 -36 -28 -83 -28 -50 0 -58 3 -85
33 -43 47 -41 102 5 148 29 29 41 34 80 34 36 0 52 -6 78 -29z"/>
<path d="M16043 22490 c-30 -12 -63 -67 -63 -103 0 -75 67 -127 140 -107 114
31 102 203 -15 216 -22 2 -50 -1 -62 -6z"/>
<path d="M16743 22233 c-60 -12 -91 -100 -58 -163 20 -38 43 -50 100 -50 35 0
52 6 70 24 44 44 42 128 -3 169 -19 17 -75 27 -109 20z"/>
<path d="M8660 19810 c-819 -53 -1551 -454 -1970 -1081 -295 -441 -430 -901
-430 -1464 0 -502 115 -942 345 -1327 395 -661 1053 -1071 1900 -1184 180 -24
569 -29 775 -10 566 54 1092 195 1483 399 l97 50 0 1319 0 1318 -1105 0 -1105
0 0 -630 0 -630 388 -2 387 -3 0 -190 0 -189 -48 -18 c-71 -26 -231 -48 -354
-48 -308 1 -582 88 -743 237 -168 155 -264 335 -322 600 -31 143 -31 450 0
574 109 440 412 746 826 835 95 21 305 20 426 -1 199 -35 373 -125 535 -277
l92 -88 464 557 c255 306 467 562 471 568 10 17 -160 161 -292 248 -121 79
-360 199 -503 252 -417 153 -857 214 -1317 185z"/>
<path d="M17330 19810 c-190 -12 -410 -52 -605 -108 -439 -127 -795 -393
-1013 -754 -92 -153 -142 -289 -178 -488 -24 -134 -24 -460 0 -585 57 -291
198 -530 424 -718 211 -176 445 -291 918 -451 437 -147 592 -216 676 -296 69
-67 85 -158 42 -242 -71 -138 -425 -169 -741 -63 -189 63 -401 186 -560 324
-45 39 -84 71 -86 71 -5 0 -971 -1050 -975 -1060 -3 -9 108 -99 213 -172 342
-235 775 -414 1205 -497 218 -41 378 -53 650 -48 277 5 375 18 601 76 621 162
1092 572 1265 1098 58 177 77 310 77 528 1 198 -10 281 -54 425 -81 268 -316
539 -639 735 -202 123 -350 185 -875 362 -490 166 -535 193 -535 325 0 105 59
164 200 199 119 30 315 23 444 -16 213 -64 354 -144 502 -287 l91 -88 64 68
c35 37 257 264 494 505 236 241 431 442 433 447 4 10 -82 87 -178 160 -408
311 -947 512 -1475 550 -153 11 -212 11 -385 0z"/>
<path d="M11340 17265 l0 -2415 805 0 805 0 2 778 3 777 365 6 c386 6 486 15
725 64 511 105 902 359 1135 740 138 225 197 445 207 766 16 536 -102 875
-411 1185 -234 233 -523 375 -922 453 -308 60 -344 61 -1585 61 l-1129 0 0
-2415z m2130 1146 c185 -39 285 -126 316 -273 38 -180 -26 -343 -164 -416
-134 -72 -152 -75 -424 -80 l-248 -4 0 390 c0 303 3 392 13 396 19 9 456 -2
507 -13z"/>
<path d="M20878 19637 c-9 -23 -65 -163 -123 -312 -59 -148 -126 -319 -150
-380 -24 -60 -73 -184 -108 -275 -36 -91 -100 -253 -142 -360 -42 -107 -106
-269 -142 -360 -36 -91 -98 -248 -138 -350 -40 -102 -98 -248 -128 -325 -30
-77 -90 -228 -132 -335 -42 -107 -135 -343 -207 -525 -71 -181 -164 -415 -205
-520 -41 -104 -110 -280 -153 -390 -141 -359 -228 -579 -244 -617 l-16 -38
857 0 858 0 119 355 118 355 774 0 c426 0 774 -2 774 -4 0 -3 204 -578 236
-663 l16 -43 879 0 c483 0 879 2 879 5 0 3 -13 38 -30 78 -16 39 -121 308
-234 597 -267 688 -519 1334 -561 1440 -29 75 -183 469 -278 715 -60 155 -287
736 -322 825 -103 261 -439 1127 -448 1153 -6 16 -56 17 -869 17 l-863 0 -17
-43z m872 -1670 c0 -6 33 -113 74 -237 162 -491 296 -907 296 -918 0 -9 -99
-12 -390 -12 -305 0 -390 3 -390 13 0 13 376 1152 385 1168 8 11 25 2 25 -14z"/>
<path d="M15030 14320 c-392 -73 -707 -319 -845 -659 -65 -159 -107 -365 -126
-623 -28 -372 48 -832 212 -1273 49 -132 149 -343 209 -440 55 -91 168 -240
214 -284 20 -19 36 -40 36 -47 0 -6 -17 -14 -37 -16 -36 -4 -41 -1 -168 126
-323 323 -527 679 -654 1143 -31 110 -81 351 -81 386 0 50 -32 87 -134 152
-195 127 -415 221 -627 266 -138 30 -381 36 -529 15 -333 -49 -641 -188 -923
-415 -43 -35 -80 -61 -83 -59 -7 8 61 104 140 197 73 87 191 198 311 291 l69
55 -115 28 c-636 155 -1127 239 -1724 292 -535 48 -1297 48 -1870 0 -187 -16
-241 -21 -515 -55 -544 -67 -1192 -195 -1784 -351 l-39 -11 6 -61 c13 -124 97
-339 197 -502 255 -416 693 -743 1258 -939 57 -20 108 -36 114 -36 5 0 1 15
-10 33 -31 50 -168 325 -192 387 -34 85 -57 167 -75 260 -9 49 -23 92 -33 102
-9 9 -71 33 -137 52 -156 45 -198 60 -202 73 -7 20 33 25 257 30 661 16 1599
-114 2540 -352 218 -55 471 -124 505 -137 16 -7 70 -50 120 -96 327 -304 746
-577 1185 -770 139 -62 460 -185 466 -179 2 2 -12 68 -30 147 -49 216 -94 476
-83 487 8 8 32 -44 107 -230 82 -207 179 -425 249 -564 28 -57 51 -107 51
-113 0 -6 -30 -10 -72 -10 -84 0 -196 -12 -388 -40 -74 -11 -196 -27 -270 -36
-129 -15 -300 -43 -385 -63 -158 -38 -307 -75 -345 -86 -25 -7 -70 -20 -100
-29 -30 -8 -154 -45 -275 -82 -193 -58 -232 -67 -320 -71 -93 -4 -106 -2 -190
27 -49 18 -115 41 -145 52 -100 35 -252 68 -545 118 -159 28 -328 57 -375 66
-170 30 -370 53 -588 65 -315 18 -656 -1 -1032 -57 -170 -25 -159 -11 -91
-112 79 -116 151 -218 236 -335 70 -95 70 -96 120 -102 164 -21 524 -96 795
-166 288 -75 802 -239 1105 -352 206 -77 408 -177 358 -177 -4 0 -89 -13 -188
-29 -99 -16 -241 -36 -315 -45 -74 -10 -169 -21 -210 -27 -141 -18 -605 -49
-735 -49 l-130 -1 200 -197 c194 -190 294 -283 419 -390 58 -49 61 -50 150
-61 326 -38 435 -44 866 -44 475 1 850 23 1067 64 59 11 133 24 163 30 30 5
108 12 174 16 129 6 119 8 416 -63 102 -24 214 -50 250 -59 187 -43 597 -115
832 -145 568 -72 1157 -44 1633 76 411 103 852 286 1315 544 277 154 295 156
564 76 342 -101 352 -104 591 -167 96 -25 401 -101 580 -144 138 -34 458 -99
725 -148 74 -14 346 -58 540 -87 171 -26 522 -63 865 -92 203 -18 995 -17
1170 0 341 34 530 67 868 151 133 33 164 45 195 72 141 122 228 205 467 444
233 232 484 499 493 524 1 5 -48 11 -110 15 -579 36 -1226 164 -2003 397 -285
86 -375 116 -415 140 -31 19 -33 22 -17 34 38 28 157 54 297 65 616 49 1591
27 2245 -50 239 -28 409 -50 422 -55 15 -5 93 100 250 333 119 176 123 183
101 191 -13 5 -61 26 -108 46 -313 136 -707 268 -1095 369 -248 64 -375 83
-655 96 -118 6 -336 17 -485 25 -269 13 -441 9 -550 -14 -27 -5 -90 -17 -140
-26 -609 -111 -1062 -252 -1470 -457 -117 -59 -148 -71 -190 -71 -40 -1 -277
51 -477 104 l-36 9 122 243 c125 248 150 300 243 517 30 69 58 129 63 134 18
18 27 -4 19 -46 -4 -24 -22 -117 -39 -208 -18 -91 -40 -209 -51 -264 -11 -54
-18 -101 -15 -104 13 -13 390 136 601 237 375 181 710 405 1020 683 54 49 115
98 135 108 69 35 596 172 1030 266 691 151 1491 243 2005 231 127 -3 240 -9
253 -13 47 -14 18 -31 -120 -73 -79 -23 -158 -49 -176 -58 -35 -17 -35 -16
-98 -248 -31 -115 -63 -192 -163 -394 -39 -80 -69 -146 -67 -148 1 -2 38 9 82
23 703 236 1236 699 1426 1239 34 95 73 253 65 261 -13 13 -341 99 -606 159
-515 116 -895 177 -1516 245 -492 54 -1110 73 -1565 50 -707 -37 -1577 -146
-2040 -256 -144 -35 -304 -90 -298 -103 2 -4 41 -40 88 -81 111 -96 228 -208
307 -293 64 -69 120 -153 110 -163 -3 -3 -36 19 -74 49 -243 195 -531 335
-819 399 -138 30 -492 33 -629 4 -205 -42 -443 -140 -625 -257 -125 -80 -120
-68 -164 -344 -32 -192 -113 -435 -220 -660 -115 -240 -251 -436 -438 -630
-97 -101 -114 -115 -143 -115 -63 0 -68 8 -36 49 42 54 162 236 208 316 133
230 230 469 303 740 112 423 109 1060 -7 1429 -129 408 -468 685 -933 762
-120 19 -371 17 -490 -6z m3675 -4576 c66 -8 156 -19 200 -24 133 -16 327 -48
575 -95 27 -5 231 -48 450 -96 74 -16 258 -54 408 -85 291 -59 338 -75 486
-163 45 -26 104 -61 131 -77 l50 -28 -40 -8 c-59 -10 -373 -9 -606 2 -683 34
-1307 145 -2014 357 -212 63 -368 115 -379 124 -13 12 86 54 186 80 154 39
310 43 553 13z"/>
<path d="M15929 8466 c-30 -7 -60 -15 -65 -19 -13 -8 -199 -56 -369 -96 -200
-47 -408 -104 -540 -149 -66 -22 -203 -63 -305 -91 -102 -28 -230 -63 -285
-78 -98 -27 -105 -28 -350 -26 -137 1 -324 9 -415 18 -233 22 -518 53 -700 75
-85 10 -211 24 -280 30 -69 5 -179 17 -245 25 -66 8 -182 15 -258 15 -77 0
-214 5 -305 10 -105 7 -625 10 -1401 8 l-1234 -3 169 -126 c210 -156 268 -196
474 -333 147 -97 553 -346 564 -346 3 0 31 -15 63 -34 97 -56 231 -126 378
-198 77 -38 147 -73 156 -77 31 -17 352 -163 402 -182 29 -11 68 -27 87 -36
89 -38 149 -63 180 -73 14 -5 50 -18 80 -30 30 -12 66 -25 80 -30 14 -5 90
-32 170 -60 271 -96 565 -183 855 -254 105 -26 206 -51 225 -56 97 -25 506
-102 670 -125 63 -9 156 -22 205 -30 113 -17 331 -40 590 -62 290 -24 1184
-24 1480 0 330 27 481 45 805 93 170 26 572 101 660 124 19 5 121 30 225 56
202 49 378 99 615 173 103 32 401 136 490 171 30 12 66 25 80 30 14 4 43 15
65 24 41 17 53 22 115 49 19 8 73 31 120 50 80 33 123 52 330 149 192 91 440
218 573 294 32 19 60 34 63 34 2 0 94 54 204 120 296 178 720 461 720 482 0 4
-30 8 -67 8 -38 0 -126 4 -198 9 -71 6 -319 15 -550 21 -466 12 -733 23 -1088
45 -270 16 -375 27 -602 61 -87 14 -216 29 -285 34 -69 5 -143 12 -165 15 -22
3 -98 10 -170 15 -71 5 -204 18 -295 30 -91 11 -212 25 -270 30 -58 5 -154 14
-215 20 -510 50 -480 44 -870 164 -164 50 -249 57 -366 32z"/>
<path d="M7165 25729 c-22 -12 -71 -46 -110 -77 -38 -30 -72 -57 -73 -58 -6
-4 180 -234 188 -234 4 0 41 27 81 59 133 108 163 185 104 275 -38 57 -119 72
-190 35z"/>
<path d="M25772 22881 c-125 -47 -227 -133 -278 -236 -26 -54 -29 -70 -29
-160 0 -90 3 -105 28 -155 55 -105 143 -177 252 -206 65 -18 97 -17 170 1 180
46 318 185 344 346 25 154 -63 320 -205 390 -86 43 -200 50 -282 20z"/>
<path d="M26973 21039 c-68 -32 -123 -61 -123 -64 0 -11 93 -190 113 -217 49
-66 129 -86 196 -50 39 21 71 73 71 115 0 58 -95 278 -120 276 -8 0 -70 -27
-137 -60z"/>
<path d="M3190 20087 c-134 -31 -222 -111 -270 -244 -29 -79 -25 -202 7 -275
43 -95 143 -178 263 -218 94 -32 232 -26 312 13 73 36 149 119 179 195 35 87
33 217 -4 294 -82 169 -306 277 -487 235z"/>
<path d="M2300 16519 c-42 -9 -85 -54 -99 -106 -6 -21 -14 -83 -17 -139 l-7
-101 148 -7 c81 -4 150 -5 153 -1 3 3 6 60 6 128 1 128 -7 160 -51 199 -25 23
-90 36 -133 27z"/>
<path d="M27875 15912 c-113 -40 -190 -104 -237 -201 -33 -69 -37 -205 -8
-284 63 -167 209 -254 412 -245 78 3 104 9 159 35 89 41 142 92 181 171 31 62
33 74 33 167 0 93 -2 105 -33 167 -40 81 -110 148 -190 179 -78 31 -244 37
-317 11z"/>
<path d="M2907 12178 c-103 -72 -186 -133 -183 -135 2 -2 75 -10 162 -18 88
-8 189 -17 226 -21 l66 -7 -25 94 c-13 52 -32 122 -42 156 l-16 62 -188 -131z"/>
<path d="M11497 3499 c-27 -89 -45 -165 -40 -169 21 -20 192 -62 254 -62 85
-1 125 21 157 82 63 126 1 210 -202 271 -50 15 -98 30 -106 33 -13 5 -25 -25
-63 -155z"/>
<path d="M13353 3205 c-94 -29 -197 -115 -241 -201 -58 -114 -75 -294 -38
-404 61 -181 212 -290 401 -290 249 0 430 203 429 480 -2 255 -176 431 -426
429 -46 0 -102 -6 -125 -14z"/>
<path d="M15260 2983 c0 -65 3 -142 7 -172 l6 -53 131 4 c115 3 138 7 187 30
47 21 60 33 79 72 41 86 15 170 -66 211 -32 16 -65 20 -191 23 l-153 4 0 -119z"/>
</g>
</svg>
